<mxfile host="app.diagrams.net" modified="2021-10-12T02:35:39.679Z" agent="5.0 (Macintosh; Intel Mac OS X 10_15_7) AppleWebKit/537.36 (KHTML, like Gecko) Chrome/94.0.4606.71 Safari/537.36" etag="_D4eiGHJoiQo4IA7AKha" version="15.5.1" type="github">
  <diagram id="wrlAaGi8iFJdKgDt66yI" name="Page-1">
    <mxGraphModel dx="2466" dy="1067" grid="1" gridSize="10" guides="1" tooltips="1" connect="1" arrows="1" fold="1" page="0" pageScale="1" pageWidth="827" pageHeight="1169" math="0" shadow="0">
      <root>
        <mxCell id="0" />
        <mxCell id="1" parent="0" />
        <mxCell id="QW7_JDPLbyxMQz8ZjGma-14" style="edgeStyle=orthogonalEdgeStyle;rounded=0;orthogonalLoop=1;jettySize=auto;html=1;entryX=0;entryY=0.5;entryDx=0;entryDy=0;" edge="1" parent="1" source="QW7_JDPLbyxMQz8ZjGma-6">
          <mxGeometry relative="1" as="geometry">
            <mxPoint x="360" y="370" as="targetPoint" />
          </mxGeometry>
        </mxCell>
        <mxCell id="QW7_JDPLbyxMQz8ZjGma-6" value="담당자" style="rounded=1;whiteSpace=wrap;html=1;" vertex="1" parent="1">
          <mxGeometry x="60" y="340" width="120" height="60" as="geometry" />
        </mxCell>
        <mxCell id="QW7_JDPLbyxMQz8ZjGma-8" value="담당자" style="rounded=1;whiteSpace=wrap;html=1;" vertex="1" parent="1">
          <mxGeometry x="60" y="520" width="120" height="60" as="geometry" />
        </mxCell>
        <mxCell id="QW7_JDPLbyxMQz8ZjGma-9" value="" style="endArrow=none;dashed=1;html=1;dashPattern=1 3;strokeWidth=2;rounded=0;" edge="1" parent="1">
          <mxGeometry width="50" height="50" relative="1" as="geometry">
            <mxPoint x="119.5" y="474" as="sourcePoint" />
            <mxPoint x="120" y="440" as="targetPoint" />
          </mxGeometry>
        </mxCell>
        <mxCell id="QW7_JDPLbyxMQz8ZjGma-13" value="담당자" style="text;html=1;strokeColor=none;fillColor=none;align=center;verticalAlign=middle;whiteSpace=wrap;rounded=0;" vertex="1" parent="1">
          <mxGeometry x="90" y="490" width="60" height="30" as="geometry" />
        </mxCell>
        <mxCell id="QW7_JDPLbyxMQz8ZjGma-15" value="&lt;meta charset=&quot;utf-8&quot;&gt;&lt;span style=&quot;color: rgb(0, 0, 0); font-family: helvetica; font-size: 12px; font-style: normal; font-weight: 400; letter-spacing: normal; text-align: center; text-indent: 0px; text-transform: none; word-spacing: 0px; background-color: rgb(248, 249, 250); display: inline; float: none;&quot;&gt;담당자1의 전자서명이 포함된 이력&lt;/span&gt;" style="text;whiteSpace=wrap;html=1;" vertex="1" parent="1">
          <mxGeometry x="200" y="330" width="110" height="30" as="geometry" />
        </mxCell>
        <mxCell id="QW7_JDPLbyxMQz8ZjGma-24" value="열람자" style="rounded=1;whiteSpace=wrap;html=1;" vertex="1" parent="1">
          <mxGeometry x="900" y="340" width="120" height="60" as="geometry" />
        </mxCell>
        <mxCell id="QW7_JDPLbyxMQz8ZjGma-25" value="열람자" style="rounded=1;whiteSpace=wrap;html=1;" vertex="1" parent="1">
          <mxGeometry x="900" y="520" width="120" height="60" as="geometry" />
        </mxCell>
        <mxCell id="QW7_JDPLbyxMQz8ZjGma-28" value="" style="endArrow=none;dashed=1;html=1;dashPattern=1 3;strokeWidth=2;rounded=0;" edge="1" parent="1">
          <mxGeometry width="50" height="50" relative="1" as="geometry">
            <mxPoint x="-211" y="830" as="sourcePoint" />
            <mxPoint x="-211" y="770" as="targetPoint" />
          </mxGeometry>
        </mxCell>
        <mxCell id="QW7_JDPLbyxMQz8ZjGma-31" value="" style="endArrow=none;dashed=1;html=1;dashPattern=1 3;strokeWidth=2;rounded=0;" edge="1" parent="1">
          <mxGeometry width="50" height="50" relative="1" as="geometry">
            <mxPoint x="390" y="827" as="sourcePoint" />
            <mxPoint x="390" y="767" as="targetPoint" />
          </mxGeometry>
        </mxCell>
        <mxCell id="QW7_JDPLbyxMQz8ZjGma-32" value="학생1" style="text;strokeColor=none;fillColor=none;html=1;fontSize=15;fontStyle=1;verticalAlign=middle;align=center;" vertex="1" parent="1">
          <mxGeometry x="30" y="640" width="100" height="40" as="geometry" />
        </mxCell>
        <mxCell id="QW7_JDPLbyxMQz8ZjGma-40" value="학생N" style="text;strokeColor=none;fillColor=none;html=1;fontSize=15;fontStyle=1;verticalAlign=middle;align=center;" vertex="1" parent="1">
          <mxGeometry x="30" y="880" width="100" height="40" as="geometry" />
        </mxCell>
        <mxCell id="QW7_JDPLbyxMQz8ZjGma-43" value="" style="endArrow=classic;html=1;rounded=0;fontSize=15;exitX=1;exitY=0.5;exitDx=0;exitDy=0;entryX=0;entryY=0.5;entryDx=0;entryDy=0;" edge="1" parent="1" source="QW7_JDPLbyxMQz8ZjGma-67" target="QW7_JDPLbyxMQz8ZjGma-58">
          <mxGeometry width="50" height="50" relative="1" as="geometry">
            <mxPoint x="-140" y="730" as="sourcePoint" />
            <mxPoint x="-10" y="660" as="targetPoint" />
          </mxGeometry>
        </mxCell>
        <mxCell id="QW7_JDPLbyxMQz8ZjGma-44" value="" style="endArrow=classic;html=1;rounded=0;fontSize=15;exitX=1;exitY=0.5;exitDx=0;exitDy=0;entryX=0;entryY=0.5;entryDx=0;entryDy=0;" edge="1" parent="1" source="QW7_JDPLbyxMQz8ZjGma-66" target="QW7_JDPLbyxMQz8ZjGma-58">
          <mxGeometry width="50" height="50" relative="1" as="geometry">
            <mxPoint x="-140" y="870" as="sourcePoint" />
            <mxPoint x="20" y="699" as="targetPoint" />
          </mxGeometry>
        </mxCell>
        <mxCell id="QW7_JDPLbyxMQz8ZjGma-46" value="" style="endArrow=classic;html=1;rounded=0;fontSize=15;exitX=1;exitY=0.5;exitDx=0;exitDy=0;entryX=0;entryY=0.5;entryDx=0;entryDy=0;" edge="1" parent="1" source="QW7_JDPLbyxMQz8ZjGma-67" target="QW7_JDPLbyxMQz8ZjGma-60">
          <mxGeometry width="50" height="50" relative="1" as="geometry">
            <mxPoint x="-140" y="730" as="sourcePoint" />
            <mxPoint x="20" y="939" as="targetPoint" />
          </mxGeometry>
        </mxCell>
        <mxCell id="QW7_JDPLbyxMQz8ZjGma-47" value="" style="endArrow=classic;html=1;rounded=0;fontSize=15;entryX=0;entryY=0.5;entryDx=0;entryDy=0;exitX=1;exitY=0.5;exitDx=0;exitDy=0;" edge="1" parent="1" source="QW7_JDPLbyxMQz8ZjGma-66" target="QW7_JDPLbyxMQz8ZjGma-60">
          <mxGeometry width="50" height="50" relative="1" as="geometry">
            <mxPoint x="-140" y="870" as="sourcePoint" />
            <mxPoint x="20" y="939" as="targetPoint" />
          </mxGeometry>
        </mxCell>
        <mxCell id="QW7_JDPLbyxMQz8ZjGma-49" value="" style="endArrow=classic;html=1;rounded=0;fontSize=15;entryX=1;entryY=0.5;entryDx=0;entryDy=0;exitX=0;exitY=0.5;exitDx=0;exitDy=0;" edge="1" parent="1" source="QW7_JDPLbyxMQz8ZjGma-69" target="QW7_JDPLbyxMQz8ZjGma-58">
          <mxGeometry width="50" height="50" relative="1" as="geometry">
            <mxPoint x="290" y="730" as="sourcePoint" />
            <mxPoint x="140" y="699" as="targetPoint" />
          </mxGeometry>
        </mxCell>
        <mxCell id="QW7_JDPLbyxMQz8ZjGma-54" value="" style="endArrow=classic;html=1;rounded=0;fontSize=15;entryX=1;entryY=0.5;entryDx=0;entryDy=0;exitX=0;exitY=0.5;exitDx=0;exitDy=0;" edge="1" parent="1" source="QW7_JDPLbyxMQz8ZjGma-69" target="QW7_JDPLbyxMQz8ZjGma-60">
          <mxGeometry width="50" height="50" relative="1" as="geometry">
            <mxPoint x="290" y="730" as="sourcePoint" />
            <mxPoint x="140" y="939" as="targetPoint" />
          </mxGeometry>
        </mxCell>
        <mxCell id="QW7_JDPLbyxMQz8ZjGma-55" value="" style="endArrow=classic;html=1;rounded=0;fontSize=15;entryX=1;entryY=0.5;entryDx=0;entryDy=0;exitX=0;exitY=0.5;exitDx=0;exitDy=0;" edge="1" parent="1" source="QW7_JDPLbyxMQz8ZjGma-68" target="QW7_JDPLbyxMQz8ZjGma-60">
          <mxGeometry width="50" height="50" relative="1" as="geometry">
            <mxPoint x="290" y="870" as="sourcePoint" />
            <mxPoint x="140" y="939" as="targetPoint" />
          </mxGeometry>
        </mxCell>
        <mxCell id="QW7_JDPLbyxMQz8ZjGma-57" value="" style="endArrow=classic;html=1;rounded=0;fontSize=15;entryX=1;entryY=0.5;entryDx=0;entryDy=0;exitX=0;exitY=0.5;exitDx=0;exitDy=0;" edge="1" parent="1" source="QW7_JDPLbyxMQz8ZjGma-68" target="QW7_JDPLbyxMQz8ZjGma-58">
          <mxGeometry width="50" height="50" relative="1" as="geometry">
            <mxPoint x="290" y="870" as="sourcePoint" />
            <mxPoint x="140" y="699" as="targetPoint" />
          </mxGeometry>
        </mxCell>
        <mxCell id="QW7_JDPLbyxMQz8ZjGma-58" value="&lt;b style=&quot;font-size: 12px&quot;&gt;&lt;font style=&quot;font-size: 15px&quot;&gt;학생1의 이력서&lt;/font&gt;&lt;/b&gt;" style="rounded=0;whiteSpace=wrap;html=1;labelBorderColor=none;fontSize=15;" vertex="1" parent="1">
          <mxGeometry x="20" y="680" width="120" height="30" as="geometry" />
        </mxCell>
        <mxCell id="QW7_JDPLbyxMQz8ZjGma-60" value="&lt;b style=&quot;font-size: 12px&quot;&gt;&lt;font style=&quot;font-size: 15px&quot;&gt;학생 N의 이력서&lt;/font&gt;&lt;/b&gt;" style="rounded=0;whiteSpace=wrap;html=1;labelBorderColor=none;fontSize=15;" vertex="1" parent="1">
          <mxGeometry x="20" y="920" width="120" height="30" as="geometry" />
        </mxCell>
        <mxCell id="QW7_JDPLbyxMQz8ZjGma-65" value="" style="endArrow=none;dashed=1;html=1;dashPattern=1 3;strokeWidth=2;rounded=0;" edge="1" parent="1">
          <mxGeometry width="50" height="50" relative="1" as="geometry">
            <mxPoint x="80" y="870" as="sourcePoint" />
            <mxPoint x="79.5" y="760" as="targetPoint" />
          </mxGeometry>
        </mxCell>
        <mxCell id="QW7_JDPLbyxMQz8ZjGma-66" value="&lt;b style=&quot;font-size: 12px&quot;&gt;&lt;font style=&quot;font-size: 15px&quot;&gt;담당자N&lt;/font&gt;&lt;/b&gt;" style="rounded=0;whiteSpace=wrap;html=1;labelBorderColor=none;fontSize=15;" vertex="1" parent="1">
          <mxGeometry x="-270" y="880" width="120" height="30" as="geometry" />
        </mxCell>
        <mxCell id="QW7_JDPLbyxMQz8ZjGma-67" value="&lt;b&gt;담당자1&lt;/b&gt;" style="rounded=0;whiteSpace=wrap;html=1;labelBorderColor=none;fontSize=15;" vertex="1" parent="1">
          <mxGeometry x="-270" y="690" width="120" height="30" as="geometry" />
        </mxCell>
        <mxCell id="QW7_JDPLbyxMQz8ZjGma-68" value="&lt;b style=&quot;font-size: 12px&quot;&gt;&lt;font style=&quot;font-size: 15px&quot;&gt;열람자N&lt;/font&gt;&lt;/b&gt;" style="rounded=0;whiteSpace=wrap;html=1;labelBorderColor=none;fontSize=15;" vertex="1" parent="1">
          <mxGeometry x="330" y="880" width="120" height="30" as="geometry" />
        </mxCell>
        <mxCell id="QW7_JDPLbyxMQz8ZjGma-69" value="&lt;b style=&quot;font-size: 12px&quot;&gt;&lt;font style=&quot;font-size: 15px&quot;&gt;열람자1&lt;/font&gt;&lt;/b&gt;" style="rounded=0;whiteSpace=wrap;html=1;labelBorderColor=none;fontSize=15;" vertex="1" parent="1">
          <mxGeometry x="330" y="690" width="120" height="30" as="geometry" />
        </mxCell>
      </root>
    </mxGraphModel>
  </diagram>
</mxfile>
